HIERARCHY
ROOT hip
{
	OFFSET 0.000000 0.000000 0.000000 
	CHANNELS 6 Xposition Yposition Zposition Xrotation Zrotation Yrotation
	JOINT abdomen
	{
		OFFSET 0.000000 3.402643 0.000000 
		CHANNELS 3 Xrotation Zrotation Yrotation
		JOINT chest
		{
			OFFSET 0.000000 8.438565 -0.680529 
			CHANNELS 3 Xrotation Zrotation Yrotation
			JOINT neck
			{
				OFFSET 0.000000 10.207942 -0.272212 
				CHANNELS 3 Xrotation Zrotation Yrotation
				JOINT head
				{
					OFFSET 0.000000 3.130431 0.000000 
					CHANNELS 3 Xrotation Zrotation Yrotation
					End Site
					{
						OFFSET 0.000000 3.130435 0.000000 
					}
				}
			}
			JOINT lCollar
			{
				OFFSET 3.470700 6.669187 -0.816635 
				CHANNELS 3 Yrotation Zrotation Xrotation
				JOINT lShldr
				{
					OFFSET 3.198488 0.000000 0.000000 
					CHANNELS 3 Zrotation Yrotation Xrotation
					JOINT lForeArm
					{
						OFFSET 10.139888 0.000000 0.000000 
						CHANNELS 3 Yrotation Zrotation Xrotation
						JOINT lHand
						{
							OFFSET 8.370511 0.000000 0.000000 
							CHANNELS 3 Zrotation Yrotation Xrotation
							End Site
							{
								OFFSET 4.083176 0.000000 0.000000 
							}
						}
					}
				}
			}
			JOINT rCollar
			{
				OFFSET -3.470700 6.669187 -0.816635 
				CHANNELS 3 Yrotation Zrotation Xrotation
				JOINT rShldr
				{
					OFFSET -3.198488 0.000000 0.000000 
					CHANNELS 3 Zrotation Yrotation Xrotation
					JOINT rForeArm
					{
						OFFSET -10.139888 0.000000 0.000000 
						CHANNELS 3 Yrotation Zrotation Xrotation
						JOINT rHand
						{
							OFFSET -8.370511 0.000000 0.000000 
							CHANNELS 3 Zrotation Yrotation Xrotation
							End Site
							{
								OFFSET -4.083176 0.000000 0.000000 
							}
						}
					}
				}
			}
		}
	}
	JOINT lThigh
	{
		OFFSET 5.308129 -1.633274 1.361059 
		CHANNELS 3 Xrotation Zrotation Yrotation
		JOINT lShin
		{
			OFFSET -2.041588 -20.007561 0.000000 
			CHANNELS 3 Xrotation Zrotation Yrotation
			JOINT lFoot
			{
				OFFSET 0.000000 -19.190928 -1.224953 
				CHANNELS 3 Xrotation Yrotation Zrotation
				End Site
				{
					OFFSET 0.000000 -2.449906 4.627600 
				}
			}
		}
	}
	JOINT rThigh
	{
		OFFSET -5.308129 -1.633274 1.361059 
		CHANNELS 3 Xrotation Zrotation Yrotation
		JOINT rShin
		{
			OFFSET 2.041588 -20.007561 0.000000 
			CHANNELS 3 Xrotation Zrotation Yrotation
			JOINT rFoot
			{
				OFFSET 0.000000 -19.190928 -1.224953 
				CHANNELS 3 Xrotation Yrotation Zrotation
				End Site
				{
					OFFSET 0.000000 -2.449906 4.627600 
				}
			}
		}
	}
}
MOTION
Frames: 8
Frame Time: 0.016667
0.959209 46.338356 2.549925 18.947451 11.069785 5.136315 8.255935 -1.815896 -1.358287 3.866028 3.505389 0.939328 11.470024 -19.270876 14.467983 -11.969097 -19.814533 15.246837 -3.395608 -9.381092 2.312266 -32.467682 -20.938301 -80.627495 -108.671341 15.538589 21.014133 25.561850 -20.204027 14.268134 10.576037 12.409985 1.100014 54.323238 6.637458 3.508797 60.443336 -9.896705 12.680304 -36.482018 18.215025 -77.011826 -15.384504 8.697687 0.976243 36.649788 -0.515765 -1.596929 -4.797650 -2.780269 -5.613328 -50.075249 -18.652205 20.930286 47.717915 -2.819164 3.851855 -15.358665 -4.553088 15.163198 
2.221838 45.094379 1.532936 21.438396 14.047859 1.541893 8.255935 -1.815896 -1.358287 3.334320 1.747991 0.459367 8.158307 -21.770737 15.577597 -14.959376 -20.348080 17.319967 -4.064422 -10.266851 1.920026 -36.105259 -18.946640 -71.031433 -100.988174 16.156647 18.788851 24.358988 -20.763918 17.666742 10.221095 10.394081 0.946642 55.887520 6.374352 5.547469 49.798595 -11.032624 11.779993 -38.954048 10.667051 -91.729782 -16.791437 6.598922 4.833794 38.057499 -0.154819 -1.545919 -15.808324 -5.091925 -9.125538 -59.088730 -19.023495 24.160545 51.752327 -4.465023 5.623842 -17.097017 -1.897155 16.873821 
2.873195 44.341827 1.013077 22.377058 15.986203 -0.232061 8.255935 -1.815896 -1.358287 3.339363 0.166015 -0.166015 6.170349 -24.004026 15.973515 -17.404095 -21.021538 18.507593 -5.122665 -11.404533 2.014078 -40.279922 -16.303024 -61.187943 -92.440285 16.363132 16.345781 25.095806 -21.624550 18.314974 9.652887 8.979536 1.236307 55.716568 6.618924 6.439415 39.455059 -11.821618 10.566182 -39.838165 3.524612 -106.622787 -16.867058 5.572391 6.175849 37.676346 0.192890 -2.456975 -22.278690 -5.024287 -12.833443 -63.815025 -19.541416 24.266050 54.108688 -5.450436 6.715657 -19.174101 0.936287 17.151419 
2.712361 44.356289 1.089964 21.097677 16.005732 -0.232058 8.255935 -1.815896 -1.358287 4.037953 -1.064354 -0.781478 6.016023 -25.426338 15.766493 -18.349943 -21.172436 19.076275 -6.359105 -13.152461 2.727962 -44.539238 -12.761055 -51.198002 -84.309502 15.361938 14.179999 23.595844 -23.547857 18.198767 9.016813 7.812069 1.954459 54.834553 5.911216 4.284645 31.772333 -12.395026 9.727857 -41.018948 -0.026023 -114.388062 -14.156192 5.710863 4.513901 35.013264 0.388519 -3.002949 -23.323147 -5.324588 -16.353533 -62.218433 -20.429930 21.557898 53.855194 -5.997094 7.112281 -19.614899 2.571374 16.334661 
1.735060 45.137062 1.739287 17.991325 14.378955 1.665120 8.255935 -1.815896 -1.358287 5.272651 -1.942766 -1.416857 8.129587 -25.302174 14.490330 -17.582075 -20.138504 18.511396 -7.798685 -15.049336 4.078534 -48.102932 -8.495824 -41.064438 -77.082512 13.334483 12.368100 21.791388 -23.959520 19.014206 8.284172 6.919755 3.334773 54.487373 2.767428 -2.932353 29.447121 -12.572524 9.507119 -44.115273 1.039367 -111.326385 -9.359417 7.358655 0.677553 29.599688 -0.274545 -2.955346 -15.327390 -5.259166 -14.096463 -55.093922 -21.112747 16.474854 51.965614 -5.680187 6.423965 -19.236795 3.163628 14.637899 
0.114739 46.375423 2.806739 13.745279 11.248752 5.467576 8.255935 -1.815896 -1.358287 6.673363 -2.976801 -1.946314 11.903599 -22.926889 12.899502 -15.499753 -17.009676 17.055994 -8.381994 -17.335962 5.733268 -50.571491 -3.679140 -31.562506 -71.915176 11.286905 11.365052 28.807316 -24.815893 11.316182 7.670449 6.061689 5.054176 55.361652 -2.547379 -14.940824 33.738369 -12.210799 9.872107 -48.106358 5.275250 -99.944336 -4.033012 10.800573 -3.472751 24.475336 -0.196534 -2.762890 -3.844570 -4.338742 -11.666867 -43.291943 -20.719992 9.396512 47.533833 -4.215471 5.698770 -17.695374 2.898313 12.395477 
-1.822453 47.596775 4.001608 9.985045 7.967760 11.707104 8.255935 -1.815896 -1.358287 7.562398 -4.018516 -2.839435 15.580720 -18.598944 10.204597 -12.592920 -11.913327 15.057288 -8.706268 -18.762205 6.598581 -51.594963 1.419776 -22.659781 -68.222992 10.326562 10.640496 38.612999 -24.892637 -0.573311 7.024324 5.030907 5.850449 56.688751 -9.068786 -28.489042 42.666088 -11.627346 10.995781 -52.057850 11.320636 -82.943909 -3.152411 15.707958 -5.576876 25.523579 0.057502 -2.909180 6.610623 -3.535521 -9.749563 -31.681147 -18.941200 3.573411 41.865894 -2.974239 4.552810 -15.466763 3.832696 10.359941 
-3.782026 48.402191 5.040941 8.453942 4.562202 20.311567 8.255935 -1.815896 -1.358287 7.048757 -4.726164 -3.762979 18.305050 -12.889679 6.821883 -9.454492 -6.258958 12.359835 -9.380895 -18.950565 6.319168 -51.442646 6.376620 -14.101011 -66.964531 10.426429 10.301394 39.614235 -23.958307 -3.528995 6.043368 4.158134 5.536235 56.606289 -15.924576 -41.908398 54.233521 -10.573206 12.157418 -51.806763 15.804502 -66.663849 -9.996552 19.771271 -8.610656 35.967350 -0.005974 -1.983266 10.944174 -2.464293 -7.734591 -23.622692 -15.937225 0.911714 37.218952 -1.899868 3.288403 -14.301989 4.325941 8.579253 
